<svg xmlns="http://www.w3.org/2000/svg" width="24" height="24" fill="none" viewBox="0 0 24 24"><path fill="#98A2B3" fill-rule="evenodd" d="M6 0a6 6 0 0 0-6 6v12a6 6 0 0 0 6 6h12a6 6 0 0 0 6-6V6a6 6 0 0 0-6-6H6ZM3.833 7.417a3.583 3.583 0 0 1 3.584-3.584h9.166a3.583 3.583 0 0 1 3.584 3.584v9.166a3.583 3.583 0 0 1-3.584 3.584H7.417a3.583 3.583 0 0 1-3.584-3.584V7.417Zm3.584-5.584a5.583 5.583 0 0 0-5.584 5.584v9.166c0 3.084 2.5 5.584 5.584 5.584h9.166c3.084 0 5.584-2.5 5.584-5.584V7.417c0-3.084-2.5-5.584-5.584-5.584H7.417Zm9.625 4.125a1 1 0 1 0 0 2h.009a1 1 0 1 0 0-2h-.01Zm-6.23 3.635a2.666 2.666 0 1 1 2.456 4.734 2.666 2.666 0 0 1-2.457-4.734Zm1.912-2.249a4.667 4.667 0 1 0-1.369 9.233 4.667 4.667 0 0 0 1.37-9.233Z" clip-rule="evenodd"/></svg>