<svg xmlns="http://www.w3.org/2000/svg" width="27" height="22" fill="none" viewBox="0 0 27 22"><path fill="#98A2B3" d="M22.872 2.3a21.991 21.991 0 0 0-5.57-1.75c-.24.433-.521 1.017-.714 1.481a20.453 20.453 0 0 0-6.174 0A15.826 15.826 0 0 0 9.692.55a21.917 21.917 0 0 0-5.574 1.754C.592 7.632-.363 12.826.115 17.947c2.338 1.746 4.604 2.807 6.831 3.501a16.99 16.99 0 0 0 1.464-2.41 14.38 14.38 0 0 1-2.305-1.121c.194-.143.383-.293.565-.447 4.443 2.078 9.27 2.078 13.66 0 .184.154.373.304.564.447-.73.44-1.503.818-2.308 1.124.423.846.911 1.652 1.463 2.41 2.23-.695 4.498-1.755 6.836-3.504.56-5.936-.958-11.083-4.013-15.647ZM9.015 14.798c-1.334 0-2.428-1.245-2.428-2.761s1.07-2.764 2.428-2.764c1.357 0 2.45 1.245 2.427 2.764.002 1.516-1.07 2.761-2.427 2.761Zm8.97 0c-1.334 0-2.427-1.245-2.427-2.761s1.07-2.764 2.427-2.764 2.45 1.245 2.427 2.764c0 1.516-1.07 2.761-2.427 2.761Z"/></svg>